<svg width="15" height="15" viewBox="0 0 15 15" fill="none" xmlns="http://www.w3.org/2000/svg">
<g id="access-key">
<path id="Path" fill-rule="evenodd" clip-rule="evenodd" d="M14.707 0.292786C14.3165 -0.0975955 13.6835 -0.0975955 13.293 0.292786L6.02 7.56579C5.40985 7.19882 4.71199 7.00328 4 6.99979C1.79086 6.99979 0 8.79065 0 10.9998C0 13.2089 1.79086 14.9998 4 14.9998C6.20914 14.9998 8 13.2089 8 10.9998C7.9965 10.2878 7.80096 9.58994 7.434 8.97979L9.854 6.56079L11.646 8.35379C11.7398 8.44783 11.8672 8.50068 12 8.50068C12.1328 8.50068 12.2602 8.44783 12.354 8.35379L14.854 5.85379C14.948 5.75998 15.0009 5.63261 15.0009 5.49979C15.0009 5.36696 14.948 5.23959 14.854 5.14579L13.061 3.35379L14.707 1.70679C15.0974 1.31629 15.0974 0.683286 14.707 0.292786Z" fill="url(#paint0_linear_0_797)"/>
</g>
<defs>
<linearGradient id="paint0_linear_0_797" x1="-7.50045" y1="7.49989" x2="7.49934" y2="22.5008" gradientUnits="userSpaceOnUse">
<stop stop-color="#FF0080"/>
<stop offset="1" stop-color="#7928CA"/>
</linearGradient>
</defs>
</svg>
