<svg width="12" height="14" viewBox="0 0 12 14" fill="none" xmlns="http://www.w3.org/2000/svg">
<path d="M6 0C3.15971 0 0.857169 2.30254 0.857169 5.14286V8.2164L0.251075 8.82249C0.00593178 9.06763 -0.0673968 9.43629 0.0652718 9.75661C0.19794 10.0769 0.510489 10.2857 0.857169 10.2857H11.1429C11.4896 10.2857 11.8021 10.0769 11.9348 9.75661C12.0675 9.43629 11.9941 9.06763 11.749 8.82249L11.1429 8.2164V5.14286C11.1429 2.30254 8.84032 0 6 0Z" fill="#67748E"/>
<path d="M5.9999 13.7143C4.57974 13.7143 3.42847 12.563 3.42847 11.1428H8.57133C8.57133 12.563 7.4201 13.7143 5.9999 13.7143Z" fill="#67748E"/>
</svg>
