<svg width="15" height="15" viewBox="0 0 15 15" fill="none" xmlns="http://www.w3.org/2000/svg">
<g id="cart">
<circle id="Oval" cx="2.50072" cy="13.7507" r="1.24999" fill="url(#paint0_linear_0_780)"/>
<circle id="Oval_2" cx="12.5007" cy="13.7507" r="1.24999" fill="url(#paint1_linear_0_780)"/>
<path id="Path" fill-rule="evenodd" clip-rule="evenodd" d="M14.3756 10.0007H1.63702L2.26202 8.7507H11.8757C12.131 8.75064 12.3607 8.59524 12.4557 8.3582L14.9556 2.10827C15.0328 1.91572 15.0094 1.69743 14.8932 1.52561C14.777 1.35379 14.5831 1.25082 14.3756 1.25078H2.13452L1.06828 0.183288C0.823895 -0.0610959 0.427671 -0.0610959 0.183288 0.183288C-0.0610959 0.427671 -0.0610959 0.823895 0.183288 1.06828L1.25078 2.13452V7.97821L0.0670388 10.3457C-0.0300441 10.5394 -0.0198404 10.7696 0.0940028 10.954C0.207846 11.1384 0.40908 11.2507 0.625783 11.2507H14.3756C14.7208 11.2507 15.0006 10.9709 15.0006 10.6257C15.0006 10.2805 14.7208 10.0007 14.3756 10.0007Z" fill="url(#paint2_linear_0_780)"/>
</g>
<defs>
<linearGradient id="paint0_linear_0_780" x1="0.000745535" y1="13.7507" x2="2.50072" y2="16.2506" gradientUnits="userSpaceOnUse">
<stop stop-color="#21D4FD"/>
<stop offset="1" stop-color="#2152FF"/>
</linearGradient>
<linearGradient id="paint1_linear_0_780" x1="10.0007" y1="13.7507" x2="12.5007" y2="16.2506" gradientUnits="userSpaceOnUse">
<stop stop-color="#21D4FD"/>
<stop offset="1" stop-color="#2152FF"/>
</linearGradient>
<linearGradient id="paint2_linear_0_780" x1="-7.50032" y1="5.62534" x2="3.30038" y2="20.026" gradientUnits="userSpaceOnUse">
<stop stop-color="#21D4FD"/>
<stop offset="1" stop-color="#2152FF"/>
</linearGradient>
</defs>
</svg>
