<svg width="14" height="14" viewBox="0 0 14 14" fill="none" xmlns="http://www.w3.org/2000/svg">
<path fill-rule="evenodd" clip-rule="evenodd" d="M8.30305 1.02457C7.97142 -0.341523 6.02857 -0.341523 5.69693 1.02457C5.4827 1.90705 4.47164 2.32584 3.69614 1.85333C2.49566 1.12185 1.12185 2.49566 1.85333 3.69614C2.32584 4.47164 1.90705 5.48269 1.02457 5.69693C-0.341523 6.02857 -0.341523 7.97142 1.02457 8.30305C1.90705 8.51733 2.32584 9.5284 1.85333 10.3038C1.12185 11.5043 2.49566 12.8782 3.69615 12.1467C4.47164 11.6742 5.4827 12.0929 5.69693 12.9755C6.02857 14.3415 7.97142 14.3415 8.30305 12.9755C8.51733 12.0929 9.5284 11.6742 10.3038 12.1467C11.5043 12.8782 12.8782 11.5043 12.1467 10.3038C11.6742 9.5284 12.0929 8.51733 12.9755 8.30305C14.3415 7.97142 14.3415 6.02857 12.9755 5.69693C12.0929 5.48269 11.6742 4.47164 12.1467 3.69614C12.8782 2.49566 11.5043 1.12185 10.3038 1.85333C9.5284 2.32584 8.51733 1.90705 8.30305 1.02457ZM7 9.625C8.44979 9.625 9.625 8.44979 9.625 7C9.625 5.55025 8.44979 4.375 7 4.375C5.55025 4.375 4.375 5.55025 4.375 7C4.375 8.44979 5.55025 9.625 7 9.625Z" fill="#67748E"/>
</svg>
