<svg width="14" height="16" viewBox="0 0 14 16" fill="none" xmlns="http://www.w3.org/2000/svg">
<g id="html5">
<path id="Shape" fill-rule="evenodd" clip-rule="evenodd" d="M13.8676 0.162789C13.7729 0.0588972 13.6396 0 13.5001 0H0.500063C0.360563 0 0.227312 0.0588972 0.132562 0.162789C0.0380611 0.266428 -0.00943907 0.405456 0.00156098 0.546L1.00157 13.1849C1.01857 13.3972 1.16532 13.5762 1.36857 13.6323L6.86859 15.149C6.91159 15.1609 6.95584 15.1667 7.00009 15.1667C7.04434 15.1667 7.08859 15.1609 7.13159 15.149L12.6316 13.6323C12.8349 13.5762 12.9816 13.3972 12.9984 13.1846L13.9984 0.545747C14.0096 0.405456 13.9621 0.266428 13.8676 0.162789ZM11.2501 4.29722H4.30558L4.44833 6.31944H11.0556L10.7126 11.1761L7.00009 12.4271L3.25008 11.1632V8.84722H4.75008V10.0702L7.00009 10.8285L9.2876 10.0573L9.4446 7.83611H3.05182L2.69457 2.78056H11.2501V4.29722Z" fill="url(#paint0_linear_0_772)"/>
</g>
<defs>
<linearGradient id="paint0_linear_0_772" x1="-7" y1="7.58333" x2="8.11821" y2="21.5386" gradientUnits="userSpaceOnUse">
<stop stop-color="#FF667C"/>
<stop offset="1" stop-color="#EA0606"/>
</linearGradient>
</defs>
</svg>
