<svg width="21" height="21" viewBox="0 0 21 21" fill="none" xmlns="http://www.w3.org/2000/svg">
<g id="logo-invision">
<path id="Path" d="M19.0963 0H1.9037C0.852305 0 0 0.852305 0 1.9037V19.0963C0 20.1477 0.852305 21 1.9037 21H19.0963C20.1477 21 21 20.1477 21 19.0963V1.9037C21 0.852305 20.1477 0 19.0963 0Z" fill="#DC395F"/>
<path id="Shape" fill-rule="evenodd" clip-rule="evenodd" d="M8.3721 5.42259C8.3721 6.13887 7.79529 6.68537 7.10674 6.68537C6.41819 6.68537 5.84155 6.13878 5.84155 5.42259C5.84155 4.7068 6.41819 4.16037 7.10674 4.16037C7.79529 4.16037 8.3721 4.7068 8.3721 5.42259ZM4.37148 14.3952C4.37148 14.113 4.40878 13.7671 4.48314 13.4467H4.48322L5.43206 9.52083H3.96216L4.40878 7.8523H7.94425L6.54854 13.4587C6.45549 13.817 6.41828 14.1141 6.41828 14.321C6.41828 14.6796 6.59256 14.7844 6.86506 14.8466C7.03101 14.8842 8.35333 14.8579 9.07319 13.2374L9.98991 9.52083H8.50123L8.94786 7.8523H12.1296L11.7203 9.74665C12.2785 8.69124 13.395 7.68843 14.4928 7.68843C15.665 7.68843 16.6327 8.53417 16.6327 10.1547C16.6327 10.5691 16.5768 11.0202 16.428 11.5288L15.8324 13.695C15.7768 13.9217 15.7394 14.1099 15.7394 14.2795C15.7394 14.6561 15.8883 14.8444 16.1674 14.8444C16.4466 14.8444 16.8001 14.6367 17.2095 13.4879L18.0282 13.8079C17.5444 15.5228 16.6699 16.2385 15.572 16.2385C14.288 16.2385 13.6742 15.4664 13.6742 14.4108C13.6742 14.1095 13.7112 13.789 13.8043 13.4686L14.4184 11.2452C14.4928 11.0001 14.5114 10.7742 14.5114 10.5668C14.5114 9.85103 14.0835 9.41743 13.395 9.41743C12.5204 9.41743 11.9436 10.0532 11.6458 11.2779L10.4548 16.1153H8.37097L8.74502 14.5952C8.13244 15.6142 7.28167 16.2453 6.23226 16.2453C4.9669 16.2453 4.37148 15.5071 4.37148 14.3952Z" fill="white"/>
</g>
</svg>
