<svg width="24" height="24" viewBox="0 0 24 24" fill="none" xmlns="http://www.w3.org/2000/svg">
<g id="logo-atlassian">
<path id="Path" d="M7.23871 11.7744C7.00536 11.4907 6.56964 11.4361 6.26399 11.6521C6.17761 11.7155 6.10794 11.7965 6.06029 11.8888L0.07558 23.0359C-0.100925 23.3648 0.0422444 23.7647 0.395438 23.9293C0.494581 23.976 0.604191 24 0.715295 23.9998H9.05348C9.32639 24.0063 9.57753 23.8617 9.6932 23.6315C11.4928 20.1707 10.4019 14.9091 7.23871 11.7744Z" fill="url(#paint0_linear_0_624)"/>
<path id="Path_2" d="M11.194 0.3819C8.15485 4.97313 7.80385 10.7965 10.2702 15.7075L14.2956 23.6111C14.4169 23.8493 14.6648 24 14.9361 24H23.2835C23.4736 24.0004 23.6561 23.9265 23.7906 23.7945C23.925 23.6625 24.0003 23.4833 23.9999 23.2967C23.9999 23.1877 23.9746 23.0801 23.9257 22.9823L12.4127 0.378591C12.3012 0.1474 12.0639 0 11.8033 0C11.5428 0 11.3055 0.1474 11.194 0.378591V0.3819Z" fill="#2684FF"/>
</g>
<defs>
<linearGradient id="paint0_linear_0_624" x1="6.22167" y1="9.74372" x2="-1.53047" y2="18.6941" gradientUnits="userSpaceOnUse">
<stop stop-color="#0052CC"/>
<stop offset="0.92" stop-color="#2684FF"/>
</linearGradient>
</defs>
</svg>
