<svg width="22" height="25" viewBox="0 0 22 25" fill="none" xmlns="http://www.w3.org/2000/svg">
<g id="logo-shopify">
<path id="Shape" fill-rule="evenodd" clip-rule="evenodd" d="M19.0504 4.64041C19.1414 4.64803 19.2516 4.7172 19.2689 4.84219H19.2689C19.286 4.96718 22 23.207 22 23.207L14.2687 24.8696L0 22.2121C0 22.2121 1.83115 8.13527 1.90031 7.63899C1.9922 6.98347 2.01434 6.96156 2.71417 6.74334C2.82794 6.70781 3.71863 6.43326 4.97241 6.04707C5.45573 4.00955 6.99725 0 10.2239 0C10.6453 0 11.1333 0.224983 11.5272 0.742839C11.5666 0.740613 11.606 0.739072 11.6442 0.739072C13.0293 0.739072 13.8167 1.91176 14.2628 3.18786C14.7184 3.04772 14.9938 2.96322 15.0102 2.95843C15.1213 2.9259 15.4078 2.88155 15.5545 3.02734C15.701 3.17322 17.0365 4.49119 17.0365 4.49119C17.0365 4.49119 18.9595 4.63288 19.0504 4.64041ZM12.2668 3.80177L13.4741 3.43031C13.1682 2.50136 12.6929 1.69414 11.9792 1.6051C12.1569 2.11132 12.2676 2.74988 12.2676 3.54297C12.2676 3.63283 12.2672 3.71508 12.2668 3.79856L12.2668 3.80177ZM11.0939 1.76237C11.2923 2.2566 11.4213 2.96588 11.4213 3.923C11.4213 3.97123 11.4209 4.01538 11.4205 4.05997L11.4205 4.06037L11.4205 4.06203L10.3279 4.39835L8.92693 4.82961C9.40707 2.98762 10.3071 2.09796 11.0939 1.76237ZM10.5491 0.999156C10.4148 0.907296 10.2745 0.860296 10.1352 0.860296H10.1352C7.81758 0.860296 6.51574 3.88507 5.96748 5.74067L7.93849 5.13387C8.40657 2.70108 9.51498 1.48285 10.5491 0.999156Z" fill="#95BF46"/>
<path id="Path" d="M19.0804 4.58169C18.9904 4.57413 17.087 4.43204 17.087 4.43204C17.087 4.43204 15.765 3.11023 15.6199 2.96393C15.5656 2.90949 15.4924 2.88159 15.4158 2.86957L14.3479 24.8696L22.0001 23.2024C22.0001 23.2024 19.3135 4.90941 19.2966 4.78406C19.2795 4.65871 19.1705 4.58933 19.0804 4.58169Z" fill="#5E8E3E"/>
<path id="Path_2" d="M11.4783 8.97475L10.4859 11.7531C10.4859 11.7531 9.61647 11.3164 8.55066 11.3164C6.98817 11.3164 6.90954 12.2392 6.90954 12.4718C6.90954 13.7407 10.424 14.2269 10.424 17.1992C10.424 19.5377 8.84814 21.0435 6.72333 21.0435C4.17356 21.0435 2.86963 19.5499 2.86963 19.5499L3.55235 17.4269C3.55235 17.4269 4.89268 18.5099 6.02367 18.5099C6.76269 18.5099 7.0633 17.9623 7.0633 17.5621C7.0633 15.9069 4.18002 15.8331 4.18002 13.1132C4.18002 10.824 5.92576 8.6087 9.44972 8.6087C10.8075 8.6087 11.4783 8.97475 11.4783 8.97475Z" fill="white"/>
</g>
</svg>
