<svg width="23" height="23" viewBox="0 0 23 23" fill="none" xmlns="http://www.w3.org/2000/svg">
<g id="logo-spotify">
<path id="Shape" fill-rule="evenodd" clip-rule="evenodd" d="M0 11.5C0 5.14852 5.14852 0 11.5 0C17.8515 0.000784715 23 5.1493 23 11.5C23 17.8515 17.8515 23 11.5 23C5.14852 23 0 17.8515 0 11.5ZM15.7885 16.8243C16.1259 17.0307 16.5677 16.9247 16.7741 16.5857C16.9812 16.2483 16.8737 15.8081 16.5363 15.6001C13.5049 13.7482 9.74695 13.3174 5.36667 14.3179C4.9798 14.4058 4.73889 14.7903 4.82757 15.1764C4.91546 15.5625 5.29997 15.8042 5.68605 15.7155C9.68888 14.8013 13.0883 15.174 15.7885 16.8243ZM18.1811 13.4555C17.9213 13.8777 17.3689 14.0095 16.9475 13.7506C13.8573 11.8508 9.14429 11.3007 5.4883 12.4103C5.01433 12.5539 4.51368 12.2863 4.36929 11.8131C4.22648 11.3391 4.49406 10.8393 4.96725 10.6949C9.1435 9.42757 14.336 10.0412 17.8852 12.2227C18.3074 12.4825 18.4408 13.0341 18.1811 13.4555ZM4.94135 8.86414C8.48042 7.79065 14.5949 7.99311 18.3019 10.1942C18.812 10.4979 19.4735 10.3292 19.7756 9.81757C20.0785 9.30751 19.9106 8.64756 19.3997 8.34388C15.1324 5.81082 8.37997 5.57305 4.3175 6.80583C3.74858 6.97847 3.42842 7.57956 3.60027 8.1477C3.77213 8.71583 4.37322 9.03678 4.94135 8.86414Z" fill="#2EBD59"/>
</g>
</svg>
